<svg width="14" height="14" viewBox="0 0 14 14" fill="none" xmlns="http://www.w3.org/2000/svg">
<path fill-rule="evenodd" clip-rule="evenodd" d="M3.12021 0.347686C5.6778 0.0618389 8.32177 0.0618389 10.8794 0.347686C12.3066 0.507205 13.4581 1.63171 13.6257 3.06462C13.9315 5.67931 13.9315 8.32072 13.6257 10.9354C13.4581 12.3683 12.3066 13.4928 10.8794 13.6523C8.32177 13.9382 5.6778 13.9382 3.12021 13.6523C1.69294 13.4928 0.541481 12.3683 0.37389 10.9354C0.0680784 8.32072 0.0680784 5.67931 0.37389 3.06462C0.541481 1.63171 1.69295 0.507205 3.12021 0.347686ZM4.05785 4.05807C4.30193 3.81399 4.69766 3.81399 4.94174 4.05807L6.9998 6.11613L9.05786 4.05808C9.30194 3.814 9.69767 3.814 9.94175 4.05808C10.1858 4.30215 10.1858 4.69788 9.94175 4.94196L7.88369 7.00002L9.94174 9.05807C10.1858 9.30215 10.1858 9.69787 9.94174 9.94195C9.69766 10.186 9.30193 10.186 9.05785 9.94195L6.9998 7.8839L4.94174 9.94196C4.69767 10.186 4.30194 10.186 4.05786 9.94196C3.81378 9.69788 3.81378 9.30215 4.05786 9.05807L6.11592 7.00002L4.05785 4.94195C3.81378 4.69787 3.81378 4.30215 4.05785 4.05807Z" fill="#68737E"/>
</svg>
