<svg width="24" height="24" viewBox="0 0 24 24" fill="none" xmlns="http://www.w3.org/2000/svg">
<path d="M9.00002 5.25C9.41424 5.25 9.75002 5.58579 9.75002 6C9.75002 6.41421 9.41424 6.75 9.00002 6.75C8.58581 6.75 8.25002 6.41421 8.25002 6C8.25002 5.58579 8.58581 5.25 9.00002 5.25ZM9.00002 11.25C9.41424 11.25 9.75002 11.5858 9.75002 12C9.75002 12.4142 9.41424 12.75 9.00002 12.75C8.58581 12.75 8.25002 12.4142 8.25002 12C8.25002 11.5858 8.58581 11.25 9.00002 11.25ZM9.00002 17.25C9.41424 17.25 9.75002 17.5858 9.75002 18C9.75002 18.4142 9.41424 18.75 9.00002 18.75C8.58581 18.75 8.25002 18.4142 8.25002 18C8.25002 17.5858 8.58581 17.25 9.00002 17.25Z" fill="black" stroke="black" stroke-width="1.5"/>
<path d="M15 5.25C15.4142 5.25 15.75 5.58579 15.75 6C15.75 6.41421 15.4142 6.75 15 6.75C14.5858 6.75 14.25 6.41421 14.25 6C14.25 5.58579 14.5858 5.25 15 5.25ZM15 11.25C15.4142 11.25 15.75 11.5858 15.75 12C15.75 12.4142 15.4142 12.75 15 12.75C14.5858 12.75 14.25 12.4142 14.25 12C14.25 11.5858 14.5858 11.25 15 11.25ZM15 17.25C15.4142 17.25 15.75 17.5858 15.75 18C15.75 18.4142 15.4142 18.75 15 18.75C14.5858 18.75 14.25 18.4142 14.25 18C14.25 17.5858 14.5858 17.25 15 17.25Z" fill="black" stroke="black" stroke-width="1.5"/>
</svg>
