<svg width="18" height="18" viewBox="0 0 18 18" fill="none" xmlns="http://www.w3.org/2000/svg">
<path fill-rule="evenodd" clip-rule="evenodd" d="M4.34426 1.01721C7.41336 0.674195 10.5861 0.674195 13.6552 1.01721C15.3679 1.20863 16.7497 2.55804 16.9508 4.27753C17.3178 7.41515 17.3178 10.5849 16.9508 13.7225C16.7497 15.442 15.3679 16.7914 13.6552 16.9828C10.5861 17.3258 7.41336 17.3258 4.34426 16.9828C2.63153 16.7914 1.24978 15.442 1.04867 13.7225C0.681694 10.5849 0.681694 7.41515 1.04867 4.27753C1.24978 2.55804 2.63154 1.20863 4.34426 1.01721ZM5.46943 5.46967C5.76232 5.17678 6.23719 5.17678 6.53009 5.46967L8.99976 7.93935L11.4694 5.46968C11.7623 5.17679 12.2372 5.17679 12.5301 5.46968C12.823 5.76257 12.823 6.23745 12.5301 6.53034L10.0604 9.00001L12.5301 11.4697C12.823 11.7626 12.823 12.2374 12.5301 12.5303C12.2372 12.8232 11.7623 12.8232 11.4694 12.5303L8.99976 10.0607L6.53009 12.5303C6.2372 12.8232 5.76233 12.8232 5.46943 12.5303C5.17654 12.2374 5.17654 11.7626 5.46943 11.4697L7.9391 9.00001L5.46943 6.53033C5.17653 6.23744 5.17653 5.76256 5.46943 5.46967Z" fill="#68737E"/>
</svg>
