<svg width="20" height="20" viewBox="0 0 20 20" fill="none" xmlns="http://www.w3.org/2000/svg">
<path fill-rule="evenodd" clip-rule="evenodd" d="M12.2702 1.99262C11.1782 0.394959 8.8214 0.394953 7.72943 1.99262L7.29751 2.62457C4.59147 6.58378 2.2665 10.7904 0.353774 15.1881L0.263559 15.3955C-0.410496 16.9453 0.607868 18.705 2.28741 18.8927C7.41304 19.4656 12.5865 19.4656 17.7122 18.8927C19.3917 18.705 20.4101 16.9453 19.736 15.3955L19.6458 15.1881C17.7331 10.7904 15.4081 6.58379 12.7021 2.62457L12.2702 1.99262ZM9.99977 14.25C9.44749 14.25 8.99977 14.6977 8.99977 15.25C8.99977 15.8023 9.44749 16.25 9.99977 16.25C10.5521 16.25 10.9998 15.8023 10.9998 15.25C10.9998 14.6977 10.5521 14.25 9.99977 14.25ZM9.24977 11.75C9.24977 12.1642 9.58556 12.5 9.99977 12.5C10.414 12.5 10.7498 12.1642 10.7498 11.75V6.75C10.7498 6.33579 10.414 6 9.99977 6C9.58556 6 9.24977 6.33579 9.24977 6.75V11.75Z" fill="#EB5D57"/>
</svg>
