<svg width="140" height="40" viewBox="0 0 140 40" fill="none" xmlns="http://www.w3.org/2000/svg">
<path d="M30.2458 15.4034C31.6884 13.2969 30.8858 10.298 28.6205 9.33063C21.7746 6.40707 14.5385 4.66806 7.18301 4.17871L5.83926 4.08931C3.26847 3.91827 1.25667 6.36676 1.63142 9.04429C2.67847 16.5253 4.68725 24.0311 7.49934 30.9699C8.50582 33.4533 11.4229 34.3875 13.5185 32.7829L14.6138 31.9441C20.6096 27.3529 25.8861 21.7697 30.2458 15.4034Z" fill="#3471E7"/>
<path d="M22.6603 18.4511C23.6276 17.5742 23.5616 15.9548 22.5266 15.1717C19.3989 12.805 15.9399 10.986 12.2791 9.78285L11.6103 9.56305C10.3309 9.14254 9.03725 10.1181 8.92347 11.5196C8.60556 15.4353 8.77073 19.4885 9.40595 23.3595C9.6333 24.745 11.0013 25.5961 12.2417 25.0577L12.8901 24.7763C16.4391 23.2359 19.7369 21.1009 22.6603 18.4511Z" fill="white"/>
<path d="M46.4723 14.6289H48.2406V17.5391H46.4723V25H42.7536V17.5391H41.3682V14.6289H42.7536V14.1602C42.7536 13.737 42.7961 13.2715 42.8812 12.7637C42.9663 12.2559 43.1242 11.8424 43.3551 11.5234C43.5921 11.1979 43.9202 10.9375 44.3395 10.7422C44.7649 10.5404 45.3847 10.4395 46.1989 10.4395C46.8491 10.4395 47.7939 10.5208 49.0335 10.6836L48.6234 13.0859C48.1798 13.0078 47.8213 12.9688 47.5479 12.9688C47.2137 12.9688 46.9736 13.0306 46.8278 13.1543C46.682 13.2715 46.5787 13.4603 46.5179 13.7207C46.4875 13.8639 46.4723 14.1667 46.4723 14.6289Z" fill="#3471E7"/>
<path d="M49.5578 10.6836H53.2766V25H49.5578V10.6836Z" fill="#3471E7"/>
<path d="M55.0039 19.8438C55.0039 18.2617 55.5022 16.9596 56.4987 15.9375C57.4953 14.9089 58.8412 14.3945 60.5365 14.3945C62.4749 14.3945 63.9393 14.9967 64.9297 16.2012C65.7257 17.1712 66.1237 18.3659 66.1237 19.7852C66.1237 21.3802 65.6285 22.6888 64.6381 23.7109C63.6537 24.7266 62.2895 25.2344 60.5456 25.2344C58.9901 25.2344 57.7322 24.8112 56.7722 23.9648C55.5934 22.9167 55.0039 21.543 55.0039 19.8438ZM58.7227 19.834C58.7227 20.7585 58.8959 21.4421 59.2422 21.8848C59.5947 22.3275 60.0352 22.5488 60.5638 22.5488C61.0986 22.5488 61.5361 22.3307 61.8763 21.8945C62.2227 21.4583 62.3959 20.7585 62.3959 19.7949C62.3959 18.8965 62.2227 18.2292 61.8763 17.793C61.53 17.3503 61.1016 17.1289 60.5912 17.1289C60.0504 17.1289 59.6038 17.3535 59.2513 17.8027C58.8989 18.2454 58.7227 18.9225 58.7227 19.834Z" fill="#3471E7"/>
<path d="M66.6298 14.6289H70.2209L71.7795 21.1621L73.7483 14.6289H77.0933L79.135 21.1621L80.6936 14.6289H84.2574L80.6936 25H77.3941L75.4345 18.7598L73.5386 25H70.2209L66.6298 14.6289Z" fill="#3471E7"/>
<path d="M84.5082 22.1289L88.1905 21.7578C88.3424 22.2266 88.5551 22.5618 88.8285 22.7637C89.102 22.9655 89.4666 23.0664 89.9223 23.0664C90.4205 23.0664 90.8064 22.9525 91.0798 22.7246C91.2925 22.5553 91.3988 22.3438 91.3988 22.0898C91.3988 21.8034 91.2591 21.582 90.9796 21.4258C90.7791 21.3151 90.2474 21.1784 89.3845 21.0156C88.0963 20.7747 87.2001 20.5534 86.6957 20.3516C86.1975 20.1432 85.7751 19.7949 85.4288 19.3066C85.0885 18.8184 84.9184 18.2617 84.9184 17.6367C84.9184 16.9531 85.1037 16.3639 85.4744 15.8691C85.845 15.3743 86.3554 15.0065 87.0056 14.7656C87.6558 14.5182 88.5278 14.3945 89.6215 14.3945C90.776 14.3945 91.6267 14.4889 92.1736 14.6777C92.7265 14.8665 93.1853 15.1595 93.5499 15.5566C93.9205 15.9538 94.2274 16.4909 94.4705 17.168L90.9522 17.5391C90.8611 17.207 90.7092 16.9629 90.4965 16.8066C90.2048 16.5983 89.8524 16.4941 89.4392 16.4941C89.0199 16.4941 88.7131 16.5755 88.5186 16.7383C88.3303 16.8945 88.2361 17.0866 88.2361 17.3145C88.2361 17.5684 88.3576 17.7604 88.6007 17.8906C88.8437 18.0208 89.3724 18.138 90.1866 18.2422C91.4201 18.3919 92.3377 18.6003 92.9392 18.8672C93.5408 19.1341 93.9995 19.515 94.3155 20.0098C94.6376 20.5046 94.7986 21.0482 94.7986 21.6406C94.7986 22.2396 94.6284 22.8223 94.2882 23.3887C93.954 23.9551 93.4223 24.4076 92.6931 24.7461C91.97 25.0781 90.9826 25.2441 89.7309 25.2441C87.9626 25.2441 86.7018 24.974 85.9483 24.4336C85.2009 23.8932 84.7209 23.125 84.5082 22.1289Z" fill="#3471E7"/>
<path d="M100.865 10.6836V14.6289H102.906V17.5293H100.865V21.2109C100.865 21.6536 100.904 21.9466 100.983 22.0898C101.105 22.3112 101.317 22.4219 101.621 22.4219C101.894 22.4219 102.277 22.3372 102.769 22.168L103.043 24.9121C102.125 25.127 101.269 25.2344 100.473 25.2344C99.549 25.2344 98.8684 25.1074 98.4309 24.8535C97.9934 24.5996 97.6683 24.2155 97.4557 23.7012C97.2491 23.1803 97.1458 22.3405 97.1458 21.1816V17.5293H95.7786V14.6289H97.1458V12.7246L100.865 10.6836Z" fill="#3471E7"/>
<path d="M115.243 20.8008H107.805C107.872 21.4388 108.033 21.9141 108.289 22.2266C108.647 22.6758 109.115 22.9004 109.692 22.9004C110.057 22.9004 110.403 22.8027 110.731 22.6074C110.932 22.4837 111.147 22.2656 111.378 21.9531L115.033 22.3145C114.474 23.3561 113.8 24.1048 113.01 24.5605C112.22 25.0098 111.087 25.2344 109.61 25.2344C108.328 25.2344 107.319 25.0423 106.584 24.6582C105.849 24.2676 105.238 23.6523 104.752 22.8125C104.272 21.9661 104.032 20.9733 104.032 19.834C104.032 18.2129 104.515 16.901 105.481 15.8984C106.453 14.8958 107.793 14.3945 109.501 14.3945C110.886 14.3945 111.98 14.6191 112.782 15.0684C113.584 15.5176 114.195 16.1686 114.614 17.0215C115.033 17.8743 115.243 18.9844 115.243 20.3516V20.8008ZM111.47 18.8965C111.397 18.1283 111.202 17.5781 110.886 17.2461C110.576 16.9141 110.166 16.748 109.656 16.748C109.066 16.748 108.595 16.9987 108.243 17.5C108.018 17.8125 107.875 18.278 107.815 18.8965H111.47Z" fill="#3471E7"/>
<path d="M116.779 28.9453V14.6289H120.252V16.1621C120.732 15.5176 121.172 15.0814 121.573 14.8535C122.114 14.5475 122.713 14.3945 123.369 14.3945C124.663 14.3945 125.663 14.9251 126.367 15.9863C127.078 17.0475 127.434 18.3594 127.434 19.9219C127.434 21.6471 127.048 22.9655 126.276 23.877C125.505 24.7819 124.529 25.2344 123.351 25.2344C122.779 25.2344 122.257 25.1302 121.783 24.9219C121.315 24.7135 120.896 24.4043 120.525 23.9941V28.9453H116.779ZM120.498 19.8438C120.498 20.6641 120.659 21.2728 120.981 21.6699C121.303 22.0671 121.71 22.2656 122.202 22.2656C122.634 22.2656 122.995 22.0768 123.287 21.6992C123.578 21.3151 123.724 20.6673 123.724 19.7559C123.724 18.916 123.572 18.3008 123.269 17.9102C122.965 17.513 122.594 17.3145 122.157 17.3145C121.683 17.3145 121.288 17.513 120.972 17.9102C120.656 18.3073 120.498 18.9518 120.498 19.8438Z" fill="#3471E7"/>
</svg>
