<svg width="180" height="48" viewBox="0 0 180 48" fill="none" xmlns="http://www.w3.org/2000/svg">
<path d="M38.8874 18.4841C40.7422 15.9563 39.7103 12.3576 36.7978 11.1968C27.996 7.68848 18.6924 5.60168 9.2353 5.01445L7.50761 4.90717C4.20232 4.70193 1.61571 7.64012 2.09753 10.8531C3.44375 19.8304 6.02646 28.8374 9.64201 37.1639C10.936 40.144 14.6866 41.265 17.3809 39.3394L18.7892 38.3329C26.4981 32.8235 33.2821 26.1236 38.8874 18.4841Z" fill="black"/>
<path d="M29.1338 22.1413C30.3775 21.0891 30.2927 19.1458 28.962 18.2061C24.9406 15.366 20.4933 13.1832 15.7866 11.7394L14.9267 11.4757C13.2817 10.9711 11.6185 12.1418 11.4722 13.8235C11.0635 18.5223 11.2758 23.3862 12.0925 28.0315C12.3848 29.6941 14.1437 30.7154 15.7385 30.0693L16.5721 29.7316C21.1351 27.8831 25.3752 25.321 29.1338 22.1413Z" fill="white"/>
<path d="M59.75 17.5547H62.0234V21.0469H59.75V30H54.9688V21.0469H53.1875V17.5547H54.9688V16.9922C54.9688 16.4844 55.0234 15.9258 55.1328 15.3164C55.2422 14.707 55.4453 14.2109 55.7422 13.8281C56.0469 13.4375 56.4688 13.125 57.0078 12.8906C57.5547 12.6484 58.3516 12.5273 59.3984 12.5273C60.2344 12.5273 61.4492 12.625 63.043 12.8203L62.5156 15.7031C61.9453 15.6094 61.4844 15.5625 61.1328 15.5625C60.7031 15.5625 60.3945 15.6367 60.207 15.7852C60.0195 15.9258 59.8867 16.1523 59.8086 16.4648C59.7695 16.6367 59.75 17 59.75 17.5547Z" fill="black"/>
<path d="M63.717 12.8203H68.4983V30H63.717V12.8203Z" fill="black"/>
<path d="M70.7192 23.8125C70.7192 21.9141 71.3598 20.3516 72.6411 19.125C73.9223 17.8906 75.6528 17.2734 77.8325 17.2734C80.3247 17.2734 82.2075 17.9961 83.4809 19.4414C84.5044 20.6055 85.0161 22.0391 85.0161 23.7422C85.0161 25.6562 84.3794 27.2266 83.1059 28.4531C81.8403 29.6719 80.0864 30.2812 77.8442 30.2812C75.8442 30.2812 74.227 29.7734 72.9927 28.7578C71.477 27.5 70.7192 25.8516 70.7192 23.8125ZM75.5005 23.8008C75.5005 24.9102 75.7231 25.7305 76.1684 26.2617C76.6216 26.793 77.188 27.0586 77.8677 27.0586C78.5552 27.0586 79.1177 26.7969 79.5552 26.2734C80.0005 25.75 80.2231 24.9102 80.2231 23.7539C80.2231 22.6758 80.0005 21.875 79.5552 21.3516C79.1098 20.8203 78.5591 20.5547 77.9028 20.5547C77.2075 20.5547 76.6333 20.8242 76.1802 21.3633C75.727 21.8945 75.5005 22.707 75.5005 23.8008Z" fill="black"/>
<path d="M85.6667 17.5547H90.2839L92.2878 25.3945L94.8191 17.5547H99.1198L101.745 25.3945L103.749 17.5547H108.331L103.749 30H99.5066L96.987 22.5117L94.5495 30H90.2839L85.6667 17.5547Z" fill="black"/>
<path d="M108.653 26.5547L113.388 26.1094C113.583 26.6719 113.856 27.0742 114.208 27.3164C114.56 27.5586 115.028 27.6797 115.614 27.6797C116.255 27.6797 116.751 27.543 117.103 27.2695C117.376 27.0664 117.513 26.8125 117.513 26.5078C117.513 26.1641 117.333 25.8984 116.974 25.7109C116.716 25.5781 116.032 25.4141 114.923 25.2188C113.267 24.9297 112.114 24.6641 111.466 24.4219C110.825 24.1719 110.282 23.7539 109.837 23.168C109.399 22.582 109.181 21.9141 109.181 21.1641C109.181 20.3438 109.419 19.6367 109.895 19.043C110.372 18.4492 111.028 18.0078 111.864 17.7188C112.7 17.4219 113.821 17.2734 115.228 17.2734C116.712 17.2734 117.806 17.3867 118.509 17.6133C119.22 17.8398 119.81 18.1914 120.278 18.668C120.755 19.1445 121.149 19.7891 121.462 20.6016L116.938 21.0469C116.821 20.6484 116.626 20.3555 116.353 20.168C115.978 19.918 115.524 19.793 114.993 19.793C114.454 19.793 114.06 19.8906 113.81 20.0859C113.567 20.2734 113.446 20.5039 113.446 20.7773C113.446 21.082 113.603 21.3125 113.915 21.4688C114.228 21.625 114.907 21.7656 115.954 21.8906C117.54 22.0703 118.72 22.3203 119.493 22.6406C120.267 22.9609 120.856 23.418 121.263 24.0117C121.677 24.6055 121.884 25.2578 121.884 25.9688C121.884 26.6875 121.665 27.3867 121.228 28.0664C120.798 28.7461 120.114 29.2891 119.177 29.6953C118.247 30.0938 116.978 30.293 115.368 30.293C113.095 30.293 111.474 29.9688 110.505 29.3203C109.544 28.6719 108.927 27.75 108.653 26.5547Z" fill="black"/>
<path d="M129.683 12.8203V17.5547H132.308V21.0352H129.683V25.4531C129.683 25.9844 129.734 26.3359 129.835 26.5078C129.991 26.7734 130.265 26.9062 130.655 26.9062C131.007 26.9062 131.499 26.8047 132.132 26.6016L132.484 29.8945C131.304 30.1523 130.202 30.2812 129.179 30.2812C127.991 30.2812 127.116 30.1289 126.554 29.8242C125.991 29.5195 125.573 29.0586 125.3 28.4414C125.034 27.8164 124.902 26.8086 124.902 25.418V21.0352H123.144V17.5547H124.902V15.2695L129.683 12.8203Z" fill="black"/>
<path d="M148.169 24.9609H138.607C138.693 25.7266 138.9 26.2969 139.228 26.6719C139.689 27.2109 140.29 27.4805 141.033 27.4805C141.501 27.4805 141.947 27.3633 142.369 27.1289C142.626 26.9805 142.904 26.7188 143.201 26.3438L147.9 26.7773C147.181 28.0273 146.314 28.9258 145.298 29.4727C144.283 30.0117 142.826 30.2812 140.927 30.2812C139.279 30.2812 137.982 30.0508 137.037 29.5898C136.091 29.1211 135.306 28.3828 134.681 27.375C134.064 26.3594 133.755 25.168 133.755 23.8008C133.755 21.8555 134.376 20.2812 135.619 19.0781C136.869 17.875 138.591 17.2734 140.787 17.2734C142.568 17.2734 143.974 17.543 145.005 18.082C146.037 18.6211 146.822 19.4023 147.361 20.4258C147.9 21.4492 148.169 22.7812 148.169 24.4219V24.9609ZM143.318 22.6758C143.224 21.7539 142.974 21.0938 142.568 20.6953C142.169 20.2969 141.642 20.0977 140.986 20.0977C140.228 20.0977 139.622 20.3984 139.169 21C138.88 21.375 138.697 21.9336 138.619 22.6758H143.318Z" fill="black"/>
<path d="M150.144 34.7344V17.5547H154.609V19.3945C155.226 18.6211 155.793 18.0977 156.308 17.8242C157.004 17.457 157.773 17.2734 158.617 17.2734C160.281 17.2734 161.566 17.9102 162.472 19.1836C163.386 20.457 163.843 22.0312 163.843 23.9062C163.843 25.9766 163.347 27.5586 162.355 28.6523C161.363 29.7383 160.109 30.2812 158.593 30.2812C157.859 30.2812 157.187 30.1562 156.578 29.9062C155.976 29.6562 155.437 29.2852 154.961 28.793V34.7344H150.144ZM154.925 23.8125C154.925 24.7969 155.132 25.5273 155.547 26.0039C155.961 26.4805 156.484 26.7188 157.117 26.7188C157.672 26.7188 158.136 26.4922 158.511 26.0391C158.886 25.5781 159.074 24.8008 159.074 23.707C159.074 22.6992 158.879 21.9609 158.488 21.4922C158.097 21.0156 157.621 20.7773 157.058 20.7773C156.449 20.7773 155.941 21.0156 155.535 21.4922C155.129 21.9688 154.925 22.7422 154.925 23.8125Z" fill="black"/>
</svg>
