<svg width="18" height="12" viewBox="0 0 18 12" fill="none" xmlns="http://www.w3.org/2000/svg">
<path fill-rule="evenodd" clip-rule="evenodd" d="M16.6667 0.666504H15.6666C15.1144 0.666504 14.6666 1.11422 14.6666 1.6665V10.3332C14.6666 10.8855 15.1144 11.3332 15.6666 11.3332H16.6667C17.219 11.3332 17.6667 10.8855 17.6667 10.3332V1.6665C17.6667 1.11422 17.219 0.666504 16.6667 0.666504ZM11 2.99984H12C12.5523 2.99984 13.0001 3.44755 13.0001 3.99984V10.3332C13.0001 10.8855 12.5523 11.3332 12 11.3332H11C10.4477 11.3332 9.99997 10.8855 9.99997 10.3332V3.99984C9.99997 3.44755 10.4477 2.99984 11 2.99984ZM7.33331 5.33317H6.33331C5.78103 5.33317 5.33331 5.78089 5.33331 6.33317V10.3332C5.33331 10.8855 5.78103 11.3332 6.33331 11.3332H7.33331C7.8856 11.3332 8.33331 10.8855 8.33331 10.3332V6.33317C8.33331 5.78089 7.8856 5.33317 7.33331 5.33317ZM2.66665 7.33317H1.66664C1.11435 7.33317 0.666626 7.78089 0.666626 8.33317V10.3332C0.666626 10.8855 1.11435 11.3332 1.66664 11.3332H2.66665C3.21894 11.3332 3.66666 10.8855 3.66666 10.3332V8.33317C3.66666 7.78089 3.21894 7.33317 2.66665 7.33317Z" fill="#AFB9C6"/>
</svg>
