<svg width="14" height="17" viewBox="0 0 14 17" fill="none" xmlns="http://www.w3.org/2000/svg">
<path fill-rule="evenodd" clip-rule="evenodd" d="M3.0886 5.46491L3.37449 8.03787L2.79596 8.08406C1.98922 8.14846 1.33047 8.75491 1.19969 9.55358C0.898281 11.3943 0.898281 13.2719 1.19969 15.1126C1.33047 15.9113 1.98922 16.5177 2.79596 16.5821L4.04274 16.6817C6.01119 16.8388 7.98904 16.8388 9.95749 16.6817L11.2043 16.5821C12.011 16.5177 12.6698 15.9113 12.8005 15.1126C13.1019 13.2719 13.1019 11.3943 12.8005 9.55358C12.6698 8.75491 12.011 8.14846 11.2043 8.08406L10.6257 8.03787L10.9115 5.46491C10.9452 5.16159 10.9452 4.85548 10.9115 4.55216L10.8926 4.38141C10.6913 2.57026 9.2675 1.13721 7.45767 0.924286C7.15365 0.888519 6.84649 0.888519 6.54247 0.924286C4.73265 1.13721 3.30881 2.57025 3.10757 4.38141L3.0886 4.55216C3.0549 4.85548 3.0549 5.16159 3.0886 5.46491ZM7.31162 2.16572C7.10464 2.14137 6.89551 2.14137 6.68852 2.16572C5.45633 2.31069 4.48694 3.28636 4.34993 4.51945L4.33096 4.6902C4.30745 4.90177 4.30745 5.1153 4.33096 5.32687L4.62162 7.94286C6.20563 7.84127 7.79452 7.84127 9.37852 7.94285L9.66919 5.32687C9.6927 5.11529 9.6927 4.90177 9.66919 4.6902L9.65022 4.51945C9.51321 3.28636 8.54381 2.31069 7.31162 2.16572ZM7.00009 11.0831C6.30974 11.0831 5.75009 11.6427 5.75009 12.3331C5.75009 13.0234 6.30974 13.5831 7.00009 13.5831C7.69045 13.5831 8.25009 13.0234 8.25009 12.3331C8.25009 11.6427 7.69045 11.0831 7.00009 11.0831Z" fill="#68737E"/>
</svg>
