<svg width="16" height="18" viewBox="0 0 16 18" fill="none" xmlns="http://www.w3.org/2000/svg">
<path d="M13.7958 1.58843C14.0399 1.34435 14.0399 0.94862 13.7958 0.704543C13.5517 0.460465 13.156 0.460465 12.9119 0.704543L12.3227 1.2938C11.9098 1.70666 11.9309 2.34821 12.2911 2.75015C14.7098 5.44911 14.6221 9.60094 12.028 12.195C10.6863 13.5367 8.92794 14.2079 7.16938 14.2087L7.16668 14.2087L7.16414 14.2087C5.52436 14.2081 3.8848 13.6246 2.58316 12.4581C2.18122 12.0979 1.53967 12.0768 1.12681 12.4897L0.537551 13.0789C0.293473 13.323 0.293473 13.7187 0.53755 13.9628C0.781628 14.2069 1.17736 14.2069 1.42143 13.9628L1.88014 13.5041C3.22996 14.6629 4.86979 15.3065 6.54168 15.4347V16.7087H5.08334C4.73817 16.7087 4.45834 16.9885 4.45834 17.3337C4.45834 17.6788 4.73817 17.9587 5.08334 17.9587H9.25001C9.59519 17.9587 9.87501 17.6788 9.87501 17.3337C9.87501 16.9885 9.59519 16.7087 9.25001 16.7087H7.79168V15.4347C9.65808 15.2917 11.4845 14.5064 12.9119 13.0789C15.9362 10.0546 16.0779 5.2397 13.3371 2.04713L13.7958 1.58843Z" fill="#68737E"/>
<path fill-rule="evenodd" clip-rule="evenodd" d="M1.75001 7.33367C1.75001 4.34213 4.17513 1.917 7.16668 1.917C10.1582 1.917 12.5833 4.34213 12.5833 7.33367C12.5833 10.3252 10.1582 12.7503 7.16668 12.7503C4.17513 12.7503 1.75001 10.3252 1.75001 7.33367ZM8.83334 4.20867C7.56769 4.20867 6.54168 5.23468 6.54168 6.50034C6.54168 7.76599 7.56769 8.792 8.83334 8.792C10.099 8.792 11.125 7.76599 11.125 6.50034C11.125 5.23468 10.099 4.20867 8.83334 4.20867ZM3.20834 9.417C3.20834 8.84171 3.67471 8.37534 4.25001 8.37534C4.82531 8.37534 5.29168 8.84171 5.29168 9.417C5.29168 9.9923 4.82531 10.4587 4.25001 10.4587C3.67471 10.4587 3.20834 9.9923 3.20834 9.417Z" fill="#68737E"/>
</svg>
