<svg width="11" height="20" viewBox="0 0 11 20" fill="none" xmlns="http://www.w3.org/2000/svg">
<path d="M7.7 0.875C6.47337 0.875 5.29699 1.36228 4.42963 2.22963C3.56228 3.09699 3.075 4.27337 3.075 5.5V8.075H0.6C0.475736 8.075 0.375 8.17574 0.375 8.3V11.7C0.375 11.8243 0.475736 11.925 0.6 11.925H3.075V18.9C3.075 19.0243 3.17574 19.125 3.3 19.125H6.7C6.82426 19.125 6.925 19.0243 6.925 18.9V11.925H9.42192C9.52517 11.925 9.61516 11.8547 9.6402 11.7546L10.4902 8.35457C10.5257 8.21256 10.4183 8.075 10.2719 8.075H6.925V5.5C6.925 5.29446 7.00665 5.09733 7.15199 4.95199C7.29733 4.80665 7.49446 4.725 7.7 4.725H10.3C10.4243 4.725 10.525 4.62426 10.525 4.5V1.1C10.525 0.975736 10.4243 0.875 10.3 0.875H7.7Z" fill="#3B5998"/>
</svg>
