<svg width="19" height="21" viewBox="0 0 19 21" fill="none" xmlns="http://www.w3.org/2000/svg">
<path d="M2.25 0.875C1.07639 0.875 0.125 1.82639 0.125 3C0.125 4.1736 1.07639 5.125 2.25 5.125C3.4236 5.125 4.375 4.1736 4.375 3C4.375 1.82639 3.4236 0.875 2.25 0.875Z" fill="#18A1F2"/>
<path d="M0.25 6.875C0.180964 6.875 0.125 6.93096 0.125 7V20C0.125 20.069 0.180964 20.125 0.25 20.125H4.25C4.31904 20.125 4.375 20.069 4.375 20V7C4.375 6.93096 4.31904 6.875 4.25 6.875H0.25Z" fill="#18A1F2"/>
<path d="M6.75 6.875C6.68096 6.875 6.625 6.93096 6.625 7V20C6.625 20.069 6.68096 20.125 6.75 20.125H10.75C10.819 20.125 10.875 20.069 10.875 20V13C10.875 12.5027 11.0725 12.0258 11.4242 11.6742C11.7758 11.3225 12.2527 11.125 12.75 11.125C13.2473 11.125 13.7242 11.3225 14.0758 11.6742C14.4275 12.0258 14.625 12.5027 14.625 13V20C14.625 20.069 14.681 20.125 14.75 20.125H18.75C18.819 20.125 18.875 20.069 18.875 20V11.3802C18.875 8.9535 16.7644 7.05499 14.3498 7.2745C13.6052 7.34219 12.869 7.52731 12.1815 7.82194L10.875 8.38186V7C10.875 6.93096 10.819 6.875 10.75 6.875H6.75Z" fill="#18A1F2"/>
</svg>
