<svg width="20" height="20" viewBox="0 0 20 20" fill="none" xmlns="http://www.w3.org/2000/svg">
<path fill-rule="evenodd" clip-rule="evenodd" d="M0.184058 19.3314C0.102241 19.6284 0.37273 19.9025 0.670778 19.8247L5.27812 18.6213C6.73247 19.409 8.36988 19.8275 10.037 19.8275H10.0419C15.5279 19.8275 19.9999 15.3815 19.9999 9.91626C19.9999 7.26735 18.9659 4.77594 17.0862 2.90491C15.2064 1.03397 12.7082 0 10.0419 0C4.55595 0 0.083985 4.44605 0.083985 9.91136C0.0833616 11.65 0.54228 13.3582 1.41467 14.8645L0.184058 19.3314ZM6.88584 5.16985C7.0688 5.17475 7.27164 5.18465 7.46463 5.61303C7.5926 5.89821 7.80818 6.4232 7.98379 6.85087C8.12045 7.18366 8.2329 7.45751 8.26104 7.51356C8.32534 7.64156 8.36492 7.78926 8.28083 7.96156C8.27091 7.98188 8.26155 8.00131 8.25253 8.02003C8.18507 8.16003 8.13706 8.25965 8.02363 8.38994C7.97698 8.44348 7.92839 8.50219 7.87998 8.56069C7.79484 8.66358 7.71025 8.7658 7.63774 8.83802C7.50914 8.96593 7.37553 9.10391 7.52392 9.35991C7.6724 9.6159 8.19181 10.4579 8.95857 11.1373C9.7829 11.8712 10.4997 12.1805 10.8621 12.3368C10.9324 12.3672 10.9894 12.3918 11.0312 12.4126C11.2885 12.5406 11.4418 12.5209 11.5902 12.3486C11.7387 12.1762 12.2333 11.6001 12.4065 11.3441C12.5747 11.0881 12.7478 11.1275 12.9853 11.2161C13.2227 11.3047 14.4891 11.9251 14.7463 12.0531C14.7971 12.0784 14.8447 12.1012 14.8888 12.1224C15.0677 12.2082 15.1894 12.2665 15.241 12.3535C15.3053 12.4618 15.3053 12.9739 15.0926 13.5746C14.875 14.1752 13.8262 14.7513 13.3513 14.7956C13.3063 14.7999 13.2616 14.8053 13.2155 14.8108C12.7803 14.8635 12.2278 14.9303 10.2595 14.1555C7.83414 13.2018 6.23311 10.8354 5.90942 10.357C5.88387 10.3192 5.86628 10.2932 5.85687 10.2806L5.85139 10.2733C5.70413 10.0762 4.80318 8.87067 4.80318 7.62685C4.80318 6.43682 5.3894 5.81726 5.65679 5.53467C5.67373 5.51676 5.6894 5.50021 5.70355 5.48494C5.94096 5.22895 6.21804 5.16495 6.39115 5.16495C6.56434 5.16495 6.73745 5.16495 6.88584 5.16985Z" fill="#25D366"/>
</svg>
